<svg width="298" height="125" viewBox="0 0 298 125" fill="none" xmlns="http://www.w3.org/2000/svg">
<path d="M263.068 56.9879L293.306 26.8214C299.268 20.8599 299.268 11.2353 293.306 5.27384C287.345 -0.687636 277.72 -0.687636 271.759 5.27384L244.896 32.0646L255.67 42.8384C259.692 46.7887 262.134 51.7447 263.068 56.9879Z" fill="url(#paint0_linear_350_867)"/>
<path d="M118.697 76.8821V22.5105V15.9745C118.697 7.57094 111.874 0.747559 103.47 0.747559C95.0667 0.747559 88.2433 7.57094 88.2433 15.9745V72.7163C88.2433 99.7943 59.6571 97.4959 59.6571 97.4959C59.6571 97.4959 34.2312 99.5788 31.3582 77.3849C31.2145 76.0202 31.0709 74.6555 31.0709 73.1472V39.0303C31.0709 39.0303 2.41281 59.3568 0.689017 79.1087C0.689017 79.2524 0.689012 79.396 0.617188 79.5396C0.689012 81.4071 0.904489 83.2746 1.19179 85.142C3.92113 103.888 15.844 113.728 28.2697 118.9C33.7284 121.198 39.9771 122.922 47.0878 123.784C53.6956 124.646 58.5797 124.574 59.6571 124.574C59.6571 124.574 59.6571 124.574 59.7289 124.574H59.8008C60.519 124.574 61.2372 124.574 61.9555 124.574C62.8174 124.574 63.6793 124.502 64.5412 124.502C64.9721 124.502 65.3313 124.502 65.6186 124.43C65.7622 124.43 65.9059 124.43 65.9777 124.43C66.1213 124.43 66.1931 124.43 66.1931 124.43C66.1931 124.43 66.1931 124.43 66.1213 124.43C80.199 123.568 91.3318 119.905 99.6635 114.231C99.7353 114.303 99.7353 114.303 99.8071 114.375C110.581 126.944 125.089 124.646 125.089 124.646C118.697 118.253 118.697 113.513 118.697 105.181C118.697 102.093 118.697 90.4571 118.697 76.8821Z" fill="url(#paint1_linear_350_867)"/>
<path d="M247.622 50.8821L236.848 40.1083L201.87 5.20133C195.908 -0.760145 186.284 -0.760145 180.322 5.20133C174.361 11.1628 174.361 20.7874 180.322 26.7488L215.301 61.6558L180.25 96.5628C174.289 102.524 174.289 112.149 180.25 118.11C186.212 124.072 195.836 124.072 201.798 118.11L236.776 83.2033L247.55 72.4296C253.583 66.4681 253.583 56.8435 247.622 50.8821Z" fill="url(#paint2_linear_350_867)"/>
<path d="M133.928 38.811V107.332C133.928 115.736 140.751 122.559 149.155 122.559C157.558 122.559 164.381 115.736 164.381 107.332V38.8829C155.978 47.2146 142.331 47.2146 133.928 38.811Z" fill="url(#paint3_linear_350_867)"/>
<path d="M263.063 66.3997C262.129 71.5711 259.687 76.527 255.737 80.4774L244.963 91.2511L271.825 118.042C277.787 124.003 287.411 124.003 293.373 118.042C299.334 112.08 299.334 102.456 293.373 96.4944L263.063 66.3997Z" fill="url(#paint4_linear_350_867)"/>
<path d="M201.945 5.27384L247.697 50.8828C253.73 56.9161 253.73 66.6125 247.697 72.6458L218.034 102.381C238.288 82.1267 220.188 66.6843 215.376 61.8002C209.774 56.1978 192.033 38.457 180.397 26.8214C174.436 20.8599 174.436 11.2353 180.397 5.27384C186.359 -0.687635 195.983 -0.687635 201.945 5.27384ZM149.154 0.820693C140.75 0.820693 133.927 7.64407 133.927 16.0476C133.927 24.4511 140.75 31.2745 149.154 31.2745C157.557 31.2745 164.381 24.4511 164.381 16.0476C164.381 7.64407 157.557 0.820693 149.154 0.820693ZM31.0021 16.0476C31.0021 7.64407 24.1787 0.820693 15.7034 0.820693C7.29991 0.820693 0.476562 7.64407 0.476562 16.0476V54.4022C4.3551 38.8161 31.0021 23.5892 31.0021 23.5892V16.0476Z" fill="url(#paint5_linear_350_867)"/>
<defs>
<linearGradient id="paint0_linear_350_867" x1="271.36" y1="56.9613" x2="271.36" y2="0.786144" gradientUnits="userSpaceOnUse">
<stop stop-color="#8C59FE"/>
<stop offset="1" stop-color="#597AFF"/>
</linearGradient>
<linearGradient id="paint1_linear_350_867" x1="62.8177" y1="124.744" x2="62.8177" y2="0.690964" gradientUnits="userSpaceOnUse">
<stop stop-color="#8C59FE"/>
<stop offset="1" stop-color="#597AFF"/>
</linearGradient>
<linearGradient id="paint2_linear_350_867" x1="213.939" y1="122.541" x2="213.939" y2="0.785452" gradientUnits="userSpaceOnUse">
<stop stop-color="#8C59FE"/>
<stop offset="1" stop-color="#597AFF"/>
</linearGradient>
<linearGradient id="paint3_linear_350_867" x1="149.145" y1="122.518" x2="149.145" y2="38.8366" gradientUnits="userSpaceOnUse">
<stop stop-color="#8C59FE"/>
<stop offset="1" stop-color="#597AFF"/>
</linearGradient>
<linearGradient id="paint4_linear_350_867" x1="271.354" y1="122.544" x2="271.354" y2="66.3665" gradientUnits="userSpaceOnUse">
<stop stop-color="#8C59FE"/>
<stop offset="1" stop-color="#597AFF"/>
</linearGradient>
<linearGradient id="paint5_linear_350_867" x1="126.35" y1="102.348" x2="126.35" y2="0.776732" gradientUnits="userSpaceOnUse">
<stop stop-color="#00C4B3"/>
<stop offset="1" stop-color="#ACE738"/>
</linearGradient>
</defs>
</svg>